<svg aria-hidden="true" style="position: absolute; width: 0; height: 0; overflow: hidden;" version="1.1" xmlns="http://www.w3.org/2000/svg" xmlns:xlink="http://www.w3.org/1999/xlink">
  <defs>
    <symbol id="icon-arrow-left" viewBox="0 0 192 32">
      <path d="M0 16l26.667 15.397v-30.795l-26.667 15.397zM192 13.333h-168v5.333h168v-5.333z"></path>
    </symbol>

    <symbol id="icon-arrow-right" viewBox="0 0 192 32">
      <path d="M192 16l-26.667-15.397v30.795l26.667-15.397zM0 18.667h168v-5.333h-168v5.333z"></path>
    </symbol>

    <symbol id="icon-arrow-up" viewBox="0 0 5 32">
      <path d="M2.667 0l-2.566 4.444h5.132l-2.566-4.444zM3.111 32v-28h-0.889v28h0.889z"></path>
    </symbol>

    <symbol id="icon-bag" viewBox="0 0 33 32">
      <path d="M14.167 8v0.333h6v-0.333c0-1.657-1.343-3-3-3s-3 1.343-3 3zM12.167 10.333h-2.073l-1.18 15.333h16.507l-1.18-15.333h-2.073v1.667c0 0.552-0.448 1-1 1s-1-0.448-1-1v-1.667h-6v1.667c0 0.552-0.448 1-1 1s-1-0.448-1-1v-1.667zM12.167 8.333v-0.333c0-2.761 2.239-5 5-5s5 2.239 5 5v0 0.333h3c0 0 0 0 0 0 0.525 0 0.956 0.405 0.997 0.919l0 0.004 1.333 17.333c0.002 0.023 0.003 0.050 0.003 0.077 0 0.552-0.448 1-1 1-0 0-0 0-0 0h-18.667c-0 0-0 0-0 0-0.552 0-1-0.448-1-1 0-0.027 0.001-0.054 0.003-0.081l-0 0.003 1.333-17.333c0.041-0.518 0.472-0.923 0.997-0.923 0 0 0 0 0 0h3z"></path>
    </symbol>

    <symbol id="icon-chevron-down" viewBox="0 0 32 32">
      <path d="M5.067 11.019c-0.361 0.148-0.611 0.497-0.611 0.904 0 0.19 0.054 0.367 0.148 0.517l-0.002-0.004c0.171 0.285 8.98 9.083 9.336 9.321 0.639 0.429 1.259 0.615 2.063 0.615s1.424-0.185 2.063-0.615c0.356-0.239 9.165-9.036 9.336-9.321 0.16-0.272 0.185-0.692 0.055-0.944-0.168-0.326-0.503-0.546-0.888-0.546-0.132 0-0.258 0.026-0.373 0.072l0.007-0.002c-0.139 0.057-1.557 1.437-4.732 4.604-5.040 5.029-4.735 4.763-5.467 4.763s-0.427 0.267-5.467-4.763c-3.175-3.167-4.593-4.547-4.732-4.604-0.107-0.048-0.232-0.077-0.364-0.077-0.134 0-0.261 0.029-0.376 0.082l0.006-0.002z"></path>
    </symbol>

    <symbol id="icon-facebook" viewBox="0 0 32 32">
      <path d="M16 0c-8.836 0-16 7.164-16 16 0 7.504 5.167 13.8 12.135 15.529v-10.64h-3.299v-4.889h3.297v-2.107c0-5.445 2.465-7.971 7.812-7.971 1.013 0 2.763 0.2 3.477 0.397v4.432c-0.377-0.040-1.033-0.059-1.848-0.059-2.623 0-3.637 0.993-3.637 3.577v1.729h5.227l-0.897 4.889h-4.329v10.993c7.924-0.956 14.063-7.703 14.063-15.883 0-8.836-7.164-16-16-16z"></path>
    </symbol>

    <symbol id="icon-frame" viewBox="0 0 32 32">
      <path d="M11.6 3.764c-0.214 0.104-0.383 0.273-0.484 0.482l-0.003 0.006c-0.061 0.143-0.073 1.857-0.073 10.425v10.253l-2.547-2.543c-1.74-1.737-2.609-2.569-2.745-2.625-0.415-0.173-0.955-0.053-1.207 0.265-0.13 0.166-0.209 0.379-0.209 0.609 0 0.219 0.071 0.421 0.191 0.585l-0.002-0.003c0.283 0.369 6.973 6.987 7.123 7.043 0.101 0.035 0.217 0.056 0.338 0.056 0.35 0 0.659-0.17 0.851-0.433l0.002-0.003 0.152-0.22v-23.325l-0.152-0.22c-0.269-0.388-0.849-0.553-1.235-0.353zM19.529 3.795c-0.151 0.080-0.277 0.192-0.371 0.326l-0.002 0.003-0.143 0.215v23.324l0.152 0.22c0.188 0.259 0.487 0.429 0.825 0.437l0.001 0c0.38 0 0.784-0.268 0.911-0.604 0.040-0.104 0.057-3.268 0.057-10.399v-10.248l2.547 2.543c1.74 1.737 2.609 2.569 2.745 2.625 0.415 0.173 0.955 0.053 1.207-0.265 0.13-0.166 0.209-0.379 0.209-0.609 0-0.219-0.071-0.421-0.191-0.585l0.002 0.003c-0.285-0.372-6.973-6.987-7.123-7.043-0.102-0.034-0.22-0.054-0.342-0.054-0.176 0-0.343 0.041-0.491 0.114l0.007-0.003z"></path>
    </symbol>

    <symbol id="icon-instagram" viewBox="0 0 32 32">
      <path d="M11.067 0.033c-1.2 0.035-2.684 0.132-3.227 0.211-3.552 0.519-6.124 2.579-7.165 5.739-0.585 1.777-0.673 3.091-0.675 9.971 0 7.023 0.092 8.349 0.703 10.12 0.401 1.165 0.896 2.027 1.656 2.887 1.345 1.523 3.157 2.447 5.481 2.796 1.096 0.165 2.167 0.2 6.976 0.228 8.807 0.051 10.175-0.080 12.411-1.185 0.86-0.424 1.431-0.851 2.187-1.633 1.101-1.139 1.756-2.384 2.16-4.105 0.345-1.476 0.396-2.633 0.396-9.060 0-5.492-0.033-6.781-0.211-8.044-0.209-1.489-0.757-3.037-1.428-4.036-1.211-1.8-3.044-3.009-5.324-3.512-1.441-0.317-2.384-0.36-8.287-0.377-0.767-0.004-1.675-0.006-2.584-0.006-1.079 0-2.157 0.003-3.235 0.010l0.165-0.001zM22.556 2.983c2.401 0.168 3.675 0.661 4.819 1.869 0.497 0.525 0.792 0.991 1.068 1.683 0.576 1.452 0.641 2.401 0.643 9.412 0 7.325-0.079 8.307-0.788 9.841-0.515 1.115-1.544 2.113-2.659 2.577-1.56 0.649-2.516 0.72-9.639 0.72s-8.079-0.071-9.639-0.72c-1.117-0.465-2.143-1.46-2.659-2.577-0.709-1.536-0.788-2.519-0.788-9.841 0-7.301 0.076-8.233 0.795-9.752 0.278-0.609 0.657-1.126 1.121-1.552l0.003-0.003c0.42-0.423 0.921-0.765 1.478-1.002l0.030-0.011c1.107-0.48 2.165-0.635 4.885-0.713 1.377-0.040 10.571 0.017 11.329 0.069zM23.964 5.673c-0.525 0.19-0.94 0.573-1.168 1.061l-0.005 0.013c-0.121 0.265-0.147 0.392-0.147 0.747 0.001 0.589 0.149 0.953 0.556 1.36 0.403 0.403 0.767 0.551 1.36 0.553 0.375 0.003 0.471-0.019 0.781-0.169 0.243-0.119 0.45-0.274 0.621-0.462l0.001-0.002c0.856-0.936 0.539-2.469-0.62-3.001-0.367-0.168-1.024-0.215-1.38-0.099zM14.88 7.864c-1.773 0.249-3.327 1.038-4.528 2.192l0.003-0.003c-1.301 1.243-2.057 2.62-2.443 4.453-0.137 0.648-0.137 2.349-0.001 2.987 0.371 1.739 1.025 2.995 2.193 4.205 1.208 1.255 2.596 2.008 4.403 2.389 0.643 0.136 2.344 0.136 2.987 0 1.796-0.379 3.201-1.141 4.403-2.389 1.161-1.204 1.829-2.487 2.192-4.205 0.075-0.348 0.096-0.696 0.096-1.493 0-1.107-0.049-1.471-0.324-2.391-0.867-2.903-3.399-5.149-6.419-5.696-0.637-0.115-1.936-0.14-2.561-0.049zM17.277 10.827c0.976 0.261 1.815 0.751 2.488 1.41l-0.001-0.001c0.664 0.679 1.157 1.527 1.41 2.474l0.009 0.039c0.168 0.673 0.167 1.817-0.001 2.501-0.261 0.99-0.758 1.842-1.429 2.522l0.001-0.001c-0.678 0.672-1.533 1.166-2.489 1.408l-0.038 0.008c-0.644 0.163-1.809 0.163-2.453 0-0.993-0.25-1.848-0.744-2.527-1.416l0 0c-0.67-0.68-1.167-1.531-1.419-2.482l-0.009-0.039c-0.168-0.679-0.168-1.823 0-2.501 0.135-0.544 0.476-1.3 0.811-1.792 0.788-1.161 2.149-2.004 3.615-2.237 0.467-0.075 1.519-0.019 2.033 0.107z"></path>
    </symbol>

    <symbol id="icon-like" viewBox="0 0 32 32">
      <path d="M9.379 4.377c-1.603 0.133-3.069 0.8-4.236 1.927-2.475 2.388-2.812 5.955-0.94 9.924 1.647 3.489 5.452 7.431 10.285 10.652 1.151 0.767 1.368 0.855 1.785 0.729 0.588-0.179 3.335-2.109 5.007-3.523 3.892-3.287 6.335-6.588 7.287-9.847 0.928-3.175 0.325-5.972-1.709-7.936-1.113-1.093-2.603-1.804-4.257-1.923l-0.022-0.001c-2.089-0.168-3.916 0.643-5.899 2.617l-0.681 0.677-0.652-0.653c-2.003-2.004-3.844-2.82-5.968-2.644zM11.119 6.529c0.955 0.324 1.813 0.903 2.775 1.871 0.323 0.325 0.731 0.781 0.907 1.013 0.475 0.628 0.665 0.808 0.928 0.879 0.491 0.132 0.824-0.027 1.245-0.595 0.912-1.227 2.141-2.34 3.145-2.849 0.647-0.327 1.127-0.459 1.775-0.487 1.957-0.084 3.769 1.037 4.639 2.871 0.337 0.713 0.419 1.129 0.423 2.155 0.004 0.744-0.017 1.015-0.119 1.515-0.449 2.233-1.744 4.487-3.989 6.951-1.572 1.724-4.284 3.989-6.471 5.404l-0.377 0.244-0.68-0.463c-1.191-0.828-2.194-1.589-3.166-2.387l0.087 0.069c-4.097-3.425-6.479-6.76-7.104-9.947-0.143-0.728-0.128-2.147 0.029-2.72 0.504-1.812 1.947-3.194 3.76-3.6l0.034-0.006c0.672-0.147 1.585-0.112 2.16 0.083z"></path>
    </symbol>

    <symbol id="icon-like-fill" viewBox="0 0 33 32">
      <path d="M16.955 26.667s12-7.008 12-15.333c0-3.333-2.667-6-6-6s-6 4-6 4-2.667-4-6-4-6 2.667-6 6.017c0 8.205 12 15.316 12 15.316z"></path>
    </symbol>

    <symbol id="icon-pinterest" viewBox="0 0 32 32">
    <path d="M16 0c-8.837 0-16 7.163-16 16 0 6.781 4.219 12.569 10.169 14.9-0.139-1.269-0.269-3.207 0.056-4.587 0.293-1.251 1.875-7.951 1.875-7.951s-0.48-0.956-0.48-2.375c0-2.227 1.287-3.888 2.893-3.888 1.361 0 2.024 1.025 2.024 2.256 0 1.375-0.875 3.425-1.325 5.325-0.373 1.593 0.8 2.893 2.369 2.893 2.844 0 5.031-3 5.031-7.325 0-3.831-2.749-6.512-6.68-6.512-4.551 0-7.227 3.413-7.227 6.944 0 1.375 0.533 2.849 1.195 3.649 0.080 0.085 0.13 0.201 0.13 0.328 0 0.046-0.007 0.091-0.019 0.133l0.001-0.003c-0.119 0.507-0.393 1.593-0.443 1.812-0.069 0.293-0.232 0.356-0.539 0.213-2-0.933-3.249-3.851-3.249-6.2 0-5.051 3.669-9.683 10.568-9.683 5.551 0 9.863 3.957 9.863 9.244 0 5.513-3.475 9.951-8.3 9.951-1.619 0-3.143-0.844-3.668-1.837 0 0-0.8 3.056-0.993 3.805-0.363 1.387-1.339 3.132-1.988 4.195 1.5 0.461 3.088 0.712 4.737 0.712 8.837 0 16-7.163 16-16s-7.163-16-16-16z"></path>
    </symbol>

    <symbol id="icon-search" viewBox="0 0 33 32">
      <path d="M21.873 19.293c-0.183-0.196-0.443-0.318-0.732-0.318-0.552 0-1 0.448-1 1 0 0.289 0.122 0.549 0.318 0.731l0.001 0.001 1.413-1.413zM28.46 28.707c0.183 0.196 0.443 0.318 0.732 0.318 0.552 0 1-0.448 1-1 0-0.289-0.122-0.549-0.318-0.731l-0.001-0.001-1.413 1.413zM14.5 21.667c-4.602 0-8.333-3.731-8.333-8.333v0h-2c0 5.707 4.626 10.333 10.333 10.333v0-2zM22.833 13.333c0 4.602-3.731 8.333-8.333 8.333v0 2c5.707 0 10.333-4.626 10.333-10.333v0h-2zM14.5 5c4.602 0 8.333 3.731 8.333 8.333v0h2c0-5.707-4.626-10.333-10.333-10.333v0 2zM14.5 3c-5.707 0-10.333 4.626-10.333 10.333v0h2c0-4.602 3.731-8.333 8.333-8.333v0-2zM20.46 20.707l8 8 1.413-1.413-8-8-1.413 1.413z"></path>
    </symbol>

    <symbol id="icon-share-bold" viewBox="0 0 32 32">
      <path d="M15.76 2.701c-0.748 0.092-1.231 0.264-1.797 0.64-0.53 0.362-0.953 0.844-1.237 1.408l-0.010 0.021c-0.312 0.633-0.413 1.12-0.381 1.843 0.044 0.996 0.387 1.777 1.084 2.475s1.479 1.040 2.475 1.084c0.732 0.032 1.208-0.068 1.867-0.393 0.42-0.207 0.584-0.328 0.963-0.708 0.363-0.364 0.5-0.549 0.676-0.911 0.319-0.653 0.411-1.037 0.411-1.733 0-0.644-0.109-1.113-0.395-1.679-0.601-1.161-1.759-1.959-3.111-2.042l-0.011-0.001c-0.088-0.007-0.191-0.012-0.295-0.012-0.084 0-0.167 0.003-0.25 0.008l0.011-0.001zM21.987 7.205c-0.316 0.159-0.529 0.481-0.529 0.853 0 0.189 0.055 0.365 0.15 0.513l-0.002-0.004c0.056 0.092 0.24 0.269 0.409 0.395 0.631 0.471 1.217 1 1.652 1.491 1.279 1.444 2.162 3.265 2.464 5.277l0.007 0.057c0.116 0.835 0.417 1.173 1.043 1.173 0.007 0 0.016 0 0.024 0 0.258 0 0.49-0.117 0.644-0.3l0.001-0.001c0.289-0.307 0.32-0.613 0.152-1.543-0.499-2.764-1.965-5.327-4.055-7.085-1.115-0.939-1.448-1.079-1.96-0.825zM9.293 7.225c-0.572 0.249-2.197 1.776-2.904 2.729-1.089 1.442-1.874 3.176-2.224 5.062l-0.012 0.075c-0.143 0.793-0.148 1.145-0.023 1.404 0.161 0.318 0.485 0.532 0.859 0.532 0.226 0 0.433-0.078 0.597-0.208l-0.002 0.002c0.245-0.187 0.321-0.364 0.415-0.964 0.292-1.864 0.897-3.343 1.953-4.764 0.427-0.576 1.383-1.539 1.957-1.971 0.463-0.348 0.627-0.551 0.681-0.843 0.137-0.724-0.628-1.345-1.299-1.055zM5.947 18.581c-1.708 0.386-2.965 1.891-2.965 3.689 0 0.282 0.031 0.557 0.090 0.822l-0.005-0.025c0.043 0.205 0.191 0.601 0.328 0.88 0.207 0.42 0.328 0.584 0.708 0.963 0.364 0.363 0.549 0.5 0.911 0.676 0.653 0.319 1.037 0.411 1.733 0.411 0.652 0 1.111-0.109 1.705-0.408 1.441-0.725 2.291-2.439 1.977-3.991-0.285-1.412-1.188-2.444-2.552-2.916-0.479-0.165-1.429-0.215-1.931-0.1zM24.56 18.557c-1.545 0.332-2.675 1.481-2.989 3.040-0.315 1.555 0.533 3.265 1.977 3.991 0.595 0.299 1.053 0.408 1.705 0.408 0.696 0 1.080-0.092 1.733-0.411 0.361-0.176 0.547-0.313 0.911-0.676 0.38-0.379 0.501-0.543 0.708-0.963 0.291-0.589 0.405-1.072 0.407-1.712-0.006-1.669-1.101-3.081-2.612-3.562l-0.027-0.007c-0.413-0.129-1.433-0.189-1.813-0.108zM10.747 26.264c-0.711 0.26-0.868 1.201-0.276 1.652 0.248 0.189 1.165 0.583 1.935 0.828 1.292 0.413 2.248 0.559 3.675 0.559 1.452 0.001 2.485-0.164 3.813-0.609 0.959-0.32 1.531-0.581 1.713-0.781 0.452-0.495 0.267-1.305-0.353-1.541-0.316-0.12-0.568-0.081-1.173 0.181-1.404 0.609-2.672 0.841-4.336 0.792-1.408-0.023-2.736-0.341-3.932-0.896l0.060 0.025c-0.62-0.275-0.835-0.315-1.125-0.209z"></path>
    </symbol>

    <symbol id="icon-share-outline" viewBox="0 0 32 32">
      <path d="M15 1.951c-2.128 0.481-3.693 2.355-3.693 4.595 0 0.003 0 0.006 0 0.009v-0c0 0.001 0 0.001 0 0.002 0 2.591 2.1 4.691 4.691 4.691 0.335 0 0.662-0.035 0.977-0.102l-0.031 0.005c2.153-0.444 3.749-2.325 3.749-4.578 0-0.006 0-0.013-0-0.019v0.001c0-0.004 0-0.009 0-0.014 0-2.254-1.588-4.136-3.707-4.589l-0.031-0.006c-0.465-0.097-1.5-0.095-1.956 0.005zM16.871 3.987c0.867 0.232 1.66 1.101 1.852 2.025 0.087 0.417 0.037 1.087-0.109 1.473-0.448 1.184-1.713 1.953-2.888 1.755-1.317-0.221-2.241-1.212-2.324-2.493-0.007-0.068-0.010-0.147-0.010-0.227 0-0.436 0.111-0.847 0.306-1.205l-0.007 0.013c0.58-1.161 1.856-1.699 3.18-1.341zM22.147 7.365c-0.403 0.2-0.627 0.691-0.503 1.103 0.089 0.3 0.209 0.432 0.824 0.908 2.079 1.623 3.524 3.974 3.952 6.664l0.008 0.060c0.1 0.671 0.167 0.839 0.413 1.055 0.441 0.388 1.021 0.352 1.391-0.088 0.216-0.257 0.265-0.527 0.196-1.061-0.199-1.423-0.611-2.711-1.207-3.889l0.032 0.071c-0.662-1.369-1.523-2.534-2.561-3.515l-0.006-0.005c-0.579-0.556-1.477-1.265-1.724-1.359-0.1-0.033-0.215-0.051-0.335-0.051-0.175 0-0.34 0.040-0.488 0.112l0.007-0.003zM8.904 7.457c-0.471 0.3-1.103 0.839-1.731 1.472-1.826 1.849-3.077 4.27-3.459 6.97l-0.008 0.066c-0.093 0.664-0.044 0.916 0.235 1.208 0.179 0.19 0.432 0.308 0.713 0.308 0.379 0 0.707-0.215 0.87-0.529l0.003-0.005c0.045-0.085 0.127-0.448 0.181-0.805 0.423-2.736 1.823-5.12 3.981-6.781 0.56-0.431 0.697-0.604 0.743-0.943 0.085-0.621-0.357-1.111-1.007-1.111-0.014-0.001-0.030-0.001-0.046-0.001-0.178 0-0.343 0.057-0.478 0.154l0.002-0.002zM5.813 18.187c-1.069 0.133-2.012 0.591-2.767 1.341-0.559 0.555-0.98 1.247-1.208 2.023l-0.008 0.033c-0.127 0.42-0.143 0.553-0.143 1.269s0.016 0.849 0.143 1.269c0.604 1.98 2.236 3.291 4.271 3.429 0.889 0.061 1.944-0.211 2.736-0.703 1.342-0.844 2.22-2.316 2.22-3.994 0-0.785-0.192-1.525-0.533-2.176l0.012 0.026c-0.46-0.894-1.179-1.599-2.057-2.031l-0.027-0.012c-0.262-0.133-0.571-0.257-0.893-0.353l-0.041-0.011c-0.363-0.086-0.78-0.135-1.209-0.135-0.175 0-0.348 0.008-0.52 0.024l0.022-0.002zM24.985 18.187c-1.103 0.142-2.068 0.648-2.79 1.391l-0.001 0.001c-0.826 0.844-1.338 1.999-1.341 3.274v0.001c0 2.132 1.459 4.001 3.563 4.569 0.592 0.16 1.683 0.16 2.277-0.001 1.231-0.34 2.244-1.113 2.887-2.141l0.012-0.021c0.417-0.691 0.664-1.526 0.664-2.419 0-0.407-0.051-0.801-0.148-1.178l0.007 0.033c-0.268-0.997-0.82-1.841-1.562-2.466l-0.007-0.006c-0.435-0.36-1.281-0.789-1.827-0.925-0.483-0.121-1.295-0.173-1.735-0.112zM7.117 20.241c0.473 0.124 0.895 0.373 1.247 0.74 0.517 0.539 0.756 1.129 0.756 1.872s-0.239 1.333-0.756 1.872c-0.519 0.54-1.173 0.821-1.907 0.821-0.017 0-0.037 0.001-0.057 0.001-0.72 0-1.371-0.294-1.84-0.768l-0-0c-0.503-0.488-0.816-1.17-0.816-1.925 0-0.753 0.31-1.433 0.81-1.92l0.001-0.001c0.49-0.479 1.161-0.774 1.9-0.774 0.235 0 0.464 0.030 0.681 0.086l-0.019-0.004zM26.203 20.24c0.48 0.124 0.941 0.385 1.263 0.715 1.067 1.092 1.053 2.748-0.029 3.824-0.829 0.824-2.067 1.007-3.141 0.461-0.584-0.296-1.164-1.025-1.34-1.687-0.045-0.21-0.071-0.452-0.071-0.7s0.026-0.49 0.075-0.723l-0.004 0.023c0.273-0.925 0.988-1.639 1.894-1.906l0.020-0.005c0.202-0.048 0.435-0.076 0.673-0.076 0.234 0 0.463 0.027 0.682 0.077l-0.020-0.004zM10.463 27.048c-0.344 0.169-0.516 0.461-0.516 0.872 0 0.271 0.027 0.368 0.151 0.556 0.127 0.191 0.24 0.271 0.695 0.488 0.719 0.343 1.981 0.759 2.812 0.927 0.744 0.157 1.599 0.248 2.475 0.248 1.817 0 3.544-0.388 5.101-1.086l-0.079 0.032c0.621-0.272 0.823-0.459 0.923-0.853 0.020-0.073 0.032-0.156 0.032-0.243 0-0.35-0.192-0.655-0.477-0.815l-0.005-0.002c-0.332-0.193-0.676-0.179-1.205 0.055-1.049 0.464-2.266 0.779-3.543 0.881l-0.040 0.003c-1.651 0.127-3.532-0.22-5.112-0.943-0.592-0.269-0.856-0.296-1.212-0.119z"></path>
    </symbol>

    <symbol id="icon-user" viewBox="0 0 33 32">
      <path d="M12.833 9.333c0-2.393 1.94-4.333 4.333-4.333s4.333 1.94 4.333 4.333v0c0 2.393-1.94 4.333-4.333 4.333s-4.333-1.94-4.333-4.333v0zM17.167 3c-3.498 0-6.333 2.836-6.333 6.333s2.836 6.333 6.333 6.333v0c3.498 0 6.333-2.836 6.333-6.333s-2.836-6.333-6.333-6.333v0zM8.833 24.444c0-1.925 1.516-3.444 3.333-3.444h10c1.817 0 3.333 1.519 3.333 3.444v1.223h-16.667v-1.223zM12.167 19c-2.969 0-5.333 2.461-5.333 5.444v2.223c0 0.552 0.448 1 1 1h18.667c0.552 0 1-0.448 1-1v0-2.223c0-2.983-2.364-5.444-5.333-5.444h-10z"></path>
    </symbol>

    <symbol id="icon-youtube" viewBox="0 0 32 32">
      <path d="M31.68 9.6s-0.311-2.207-1.273-3.175c-1.219-1.276-2.581-1.281-3.207-1.357-4.475-0.324-11.193-0.324-11.193-0.324h-0.013s-6.719 0-11.193 0.324c-0.625 0.076-1.987 0.081-3.207 1.357-0.963 0.968-1.268 3.173-1.268 3.173s-0.325 2.596-0.325 5.184v2.425c0 2.587 0.32 5.18 0.32 5.18s0.311 2.207 1.267 3.176c1.22 1.275 2.82 1.231 3.533 1.368 2.56 0.244 10.88 0.32 10.88 0.32s6.725-0.013 11.2-0.333c0.625-0.073 1.987-0.080 3.207-1.355 0.963-0.969 1.275-3.176 1.275-3.176s0.319-2.588 0.319-5.181v-2.427c0-2.587-0.32-5.18-0.32-5.18zM12.693 20.149v-8.993l8.644 4.512-8.644 4.481z"></path>
    </symbol>

    <symbol id="icon-shadow-top" viewBox="0 0 1711 618">
      <g filter="url(#filter0_f_14_606)">
        <path d="M1671 40H40C85.0829 104.162 152.144 306.675 152.144 424V578H1561.32V464.388C1561.32 378.961 1600.87 156.867 1671 40Z" fill="black" fill-opacity="0.1" />
      </g>
      <defs>
        <filter id="filter0_f_14_606" x="0" y="0" width="1711" height="618" filterUnits="userSpaceOnUse" color-interpolation-filters="sRGB">
          <feFlood flood-opacity="0" result="BackgroundImageFix" />
          <feBlend mode="normal" in="SourceGraphic" in2="BackgroundImageFix" result="shape" />
          <feGaussianBlur stdDeviation="20" result="effect1_foregroundBlur_14_606" />
        </filter>
      </defs>
    </symbol>

    <symbol id="icon-shadow-left" viewBox="0 0 861 696">
      <g filter="url(#filter0_f_18_669)">
        <path d="M40 40L821 81.382C798.03 157.244 777.862 335.201 777.862 473.919V656H76.5V517.666C76.5 416.661 75.731 178.177 40 40Z" fill="black" fill-opacity="0.2" />
      </g>
      <defs>
        <filter id="filter0_f_18_669" x="0" y="0" width="861" height="696" filterUnits="userSpaceOnUse" color-interpolation-filters="sRGB">
          <feFlood flood-opacity="0" result="BackgroundImageFix" />
          <feBlend mode="normal" in="SourceGraphic" in2="BackgroundImageFix" result="shape" />
          <feGaussianBlur stdDeviation="20" result="effect1_foregroundBlur_18_669" />
        </filter>
      </defs>
    </symbol>

    <symbol id="icon-shadow-right" viewBox="0 0 44 32">
      <path d="M42.289 2.058l-40.231 1.873c1.183 3.434 2.222 11.489 2.222 17.769v8.242h36.129v-6.262c0-4.572 0.040-15.367 1.88-21.622z"></path>
    </symbol>
  </defs>
</svg>
